<?xml version="1.0" encoding="UTF-8" standalone="no"?>
<!DOCTYPE svg PUBLIC "-//W3C//DTD SVG 1.1//EN" "http://www.w3.org/Graphics/SVG/1.1/DTD/svg11.dtd">
<!-- Created with Vectornator (http://vectornator.io/) -->
<svg height="100%" stroke-miterlimit="10" style="fill-rule:nonzero;clip-rule:evenodd;stroke-linecap:round;stroke-linejoin:round;" version="1.1" viewBox="0 0 1024 1024" width="100%" xml:space="preserve" xmlns="http://www.w3.org/2000/svg" xmlns:vectornator="http://vectornator.io" xmlns:xlink="http://www.w3.org/1999/xlink">
<defs>
<clipPath id="TextBounds">
<rect height="962.742" width="1022.35" x="7.99557" y="-10.594"/>
</clipPath>
</defs>
<g id="Layer-1" vectornator:layerName="Layer 1">
<g fill="#0a0909" opacity="1" stroke="none">
<path clip-path="url(#TextBounds)" d="M667.672 968.406L241.672 968.406C225.672 968.406 214.005 964.739 206.672 957.406C199.338 950.073 195.672 938.406 195.672 922.406L195.672 803.406C195.672 794.739 196.838 787.406 199.172 781.406C201.505 775.406 205.005 770.406 209.672 766.406L330.672 664.406L330.672 441.406L241.672 441.406C225.672 441.406 214.005 437.739 206.672 430.406C199.338 423.073 195.672 411.406 195.672 395.406L195.672 274.406C195.672 265.739 196.838 258.406 199.172 252.406C201.505 246.406 205.005 241.406 209.672 237.406L338.672 128.406C342.005 125.739 346.505 123.573 352.172 121.906C357.838 120.239 364.005 119.406 370.672 119.406L796.672 119.406C812.672 119.406 824.338 123.073 831.672 130.406C839.005 137.739 842.672 149.406 842.672 165.406L842.672 286.406C842.672 295.073 841.505 302.406 839.172 308.406C836.838 314.406 833.338 319.406 828.672 323.406L709.672 423.406L709.672 648.406L796.672 648.406C812.672 648.406 824.338 652.073 831.672 659.406C839.005 666.739 842.672 678.406 842.672 694.406L842.672 813.406C842.672 822.073 841.505 829.406 839.172 835.406C836.838 841.406 833.338 846.406 828.672 850.406L698.672 958.406C696.005 961.073 691.838 963.406 686.172 965.406C680.505 967.406 674.338 968.406 667.672 968.406ZM370.672 849.406L796.672 849.406C809.338 849.406 818.505 846.573 824.172 840.906C829.838 835.239 832.672 826.073 832.672 813.406L832.672 694.406C832.672 681.739 829.838 672.573 824.172 666.906C818.505 661.239 809.338 658.406 796.672 658.406L699.672 658.406L699.672 322.406L796.672 322.406C809.338 322.406 818.505 319.573 824.172 313.906C829.838 308.239 832.672 299.073 832.672 286.406L832.672 165.406C832.672 152.739 829.838 143.573 824.172 137.906C818.505 132.239 809.338 129.406 796.672 129.406L370.672 129.406C358.005 129.406 348.838 132.239 343.172 137.906C337.505 143.573 334.672 152.739 334.672 165.406L334.672 286.406C334.672 299.073 337.505 308.239 343.172 313.906C348.838 319.573 358.005 322.406 370.672 322.406L469.672 322.406L469.672 658.406L370.672 658.406C358.005 658.406 348.838 661.239 343.172 666.906C337.505 672.573 334.672 681.739 334.672 694.406L334.672 813.406C334.672 826.073 337.505 835.239 343.172 840.906C348.838 846.573 358.005 849.406 370.672 849.406ZM742.672 759.406L424.672 759.406L424.672 749.406L579.672 749.406L579.672 229.406L424.672 229.406L424.672 219.406L742.672 219.406L742.672 229.406L589.672 229.406L589.672 749.406L742.672 749.406L742.672 759.406Z"/>
<path clip-path="url(#TextBounds)" d="M381.672 1959.4L381.672 1419.4L391.672 1419.4L391.672 1684.4L775.672 1684.4L775.672 1419.4L785.672 1419.4L785.672 1959.4L775.672 1959.4L775.672 1694.4L391.672 1694.4L391.672 1959.4L381.672 1959.4ZM464.672 2049.4C477.338 2049.4 486.505 2046.57 492.172 2040.9C497.838 2035.24 500.672 2026.07 500.672 2013.4L500.672 1791.4L667.672 1791.4L667.672 2013.4C667.672 2026.07 670.505 2035.24 676.172 2040.9C681.838 2046.57 691.005 2049.4 703.672 2049.4L858.672 2049.4C871.338 2049.4 880.505 2046.57 886.172 2040.9C891.838 2035.24 894.672 2026.07 894.672 2013.4L894.672 1365.4C894.672 1352.74 891.838 1343.57 886.172 1337.9C880.505 1332.24 871.338 1329.4 858.672 1329.4L703.672 1329.4C691.005 1329.4 681.838 1332.24 676.172 1337.9C670.505 1343.57 667.672 1352.74 667.672 1365.4L667.672 1582.4L500.672 1582.4L500.672 1365.4C500.672 1352.74 497.838 1343.57 492.172 1337.9C486.505 1332.24 477.338 1329.4 464.672 1329.4L309.672 1329.4C297.005 1329.4 287.838 1332.24 282.172 1337.9C276.505 1343.57 273.672 1352.74 273.672 1365.4L273.672 2013.4C273.672 2026.07 276.505 2035.24 282.172 2040.9C287.838 2046.57 297.005 2049.4 309.672 2049.4L464.672 2049.4ZM496.672 2050.4L366.672 2158.4C364.005 2161.07 359.838 2163.4 354.172 2165.4C348.505 2167.4 342.338 2168.4 335.672 2168.4L180.672 2168.4C164.672 2168.4 153.005 2164.74 145.672 2157.4C138.338 2150.07 134.672 2138.4 134.672 2122.4L134.672 1474.4C134.672 1465.74 135.838 1458.4 138.172 1452.4C140.505 1446.4 144.005 1441.4 148.672 1437.4L277.672 1328.4C281.005 1325.74 285.505 1323.57 291.172 1321.9C296.838 1320.24 303.005 1319.4 309.672 1319.4L464.672 1319.4C480.672 1319.4 492.338 1323.07 499.672 1330.4C507.005 1337.74 510.672 1349.4 510.672 1365.4L510.672 1572.4L528.672 1572.4L528.672 1474.4C528.672 1465.74 529.838 1458.4 532.172 1452.4C534.505 1446.4 538.005 1441.4 542.672 1437.4L671.672 1328.4C675.005 1325.74 679.505 1323.57 685.172 1321.9C690.838 1320.24 697.005 1319.4 703.672 1319.4L858.672 1319.4C874.672 1319.4 886.338 1323.07 893.672 1330.4C901.005 1337.74 904.672 1349.4 904.672 1365.4L904.672 2013.4C904.672 2022.07 903.505 2029.4 901.172 2035.4C898.838 2041.4 895.338 2046.4 890.672 2050.4L760.672 2158.4C758.005 2161.07 753.838 2163.4 748.172 2165.4C742.505 2167.4 736.338 2168.4 729.672 2168.4L574.672 2168.4C558.672 2168.4 547.005 2164.74 539.672 2157.4C532.338 2150.07 528.672 2138.4 528.672 2122.4L528.672 1910.4L510.672 1910.4L510.672 2013.4C510.672 2022.07 509.505 2029.4 507.172 2035.4C504.838 2041.4 501.338 2046.4 496.672 2050.4Z"/>
</g>
</g>
</svg>
